<svg xmlns="http://www.w3.org/2000/svg" viewBox="0 0 1000 1000"><path d="M894.2 9.5c25.5 0 47.9 8.5 67.1 25.5S990 73.1 990 98.7c0 23-8.2 50.6-24.6 82.7-121.2 229.6-206 366.8-254.6 411.7-35.4 33.2-75.2 49.8-119.4 49.8-46 0-85.5-16.9-118.5-50.6-33-33.8-49.5-73.8-49.5-120.2 0-46.7 16.8-85.4 50.4-116.1L823 39c21.6-19.7 45.3-29.5 71.2-29.5zM396.5 575.6c14.2 27.7 33.7 51.5 58.3 71.2 24.6 19.7 52.1 33.6 82.4 41.6l.5 38.9c1.5 77.7-22.2 141.1-70.9 190-48.7 48.9-112.3 73.4-190.8 73.4-44.9 0-84.7-8.5-119.4-25.5S94.1 925 73.1 895.4c-21-29.6-36.8-63-47.4-100.2C15.3 757.9 10 717.7 10 674.6c2.6 1.8 10 7.3 22.4 16.4s23.7 17.2 33.9 24.4c10.2 7.1 21 13.8 32.3 20 11.3 6.2 19.7 9.3 25.2 9.3 15 0 25-6.8 30.1-20.3 9.1-24.1 19.6-44.6 31.5-61.6 11.9-17 24.5-30.8 38.1-41.6 13.5-10.8 29.6-19.4 48.2-26 18.6-6.6 37.4-11.2 56.4-14 19-2.6 41.8-4.6 68.4-5.6z" fill="#aaa" /></svg>