<svg xmlns="http://www.w3.org/2000/svg" viewBox="0 0 26 26"><path d="M5.102 0c2.746 0 4.976 2.24 4.976 5 0 .087-.027.164-.03.25l7.804 3.938C18.72 8.458 19.806 8 21.024 8 23.77 8 26 10.24 26 13s-2.23 5-4.976 5c-1.218 0-2.306-.458-3.172-1.188l-7.805 3.938c.003.086.03.163.03.25 0 2.76-2.23 5-4.976 5S.126 23.76.126 21s2.23-5 4.976-5c1.22 0 2.308.458 3.173 1.188l7.805-3.938c-.003-.086-.03-.163-.03-.25s.027-.164.03-.25L8.274 8.812C7.408 9.542 6.32 10 5.102 10 2.355 10 .126 7.76.126 5s2.23-5 4.976-5z" fill="#FFF"/></svg>