<svg xmlns="http://www.w3.org/2000/svg" viewBox="-41 164.9 512 512"><path fill="#FFF" d="M407 164.9H23c-35.3 0-64 28.7-64 64v384c0 35.3 28.7 64 64 64h384c35.3 0 64-28.7 64-64v-384c0-35.4-28.7-64-64-64zm-57.8 441.3c-9.8 9.8-21.5 14.7-35.2 14.7h-98.7c-41.1 0-76.3-14.6-105.5-43.9-29.2-29.2-43.7-64.4-43.7-105.7V270.9c0-14.1 4.9-26 14.6-35.6 9.7-9.6 21.6-14.4 35.6-14.4 13.6 0 25.3 4.9 35 14.7 9.7 9.8 14.6 21.6 14.6 35.3v72.6h140.5c12.7 0 23.7 4.6 32.8 13.6 9.1 9.1 13.7 20 13.7 32.7 0 12.7-4.6 23.6-13.6 32.7-9.1 9.1-20 13.6-32.7 13.6H165.9v35.1c0 13.8 4.8 25.5 14.4 35.1 9.6 9.6 21.3 14.4 35 14.4H314c13.7 0 25.5 4.9 35.3 14.7 9.8 9.8 14.7 21.6 14.7 35.3-.1 13.9-5 25.7-14.8 35.5z"/></svg>